# xmcd
#
# Track frame offsets:
#	150
#	12384
#	22983
#	38245
#	51362
#	61622
#	73239
#	84403
#	96670
#	107010
#	120773
#	133153
#	144671
#	157266
#	169922
#	183636
#
# Disc length: 2600 seconds
#
# Revision: 0
# Processed by: cddbd v1.4PL0 Copyright (c) Steve Scherf et al.
# Submitted via: dBpowerAMP V4.0
#
DISCID=e30a2610
DTITLE=Various Artist - Kings of Country
DYEAR=1999
DGENRE=Country
TTITLE0=Willie Nelson/I Can't Find The Time
TTITLE1=Don Williams/Always Something There To Remind Me
TTITLE2=Merle Haggard/Okie From Muskogee
TTITLE3=Charlie McCoy/Me And Bobby McGee
TTITLE4=Glen Campbell/Walk Right In
TTITLE5=Frankie Lane/Mule Train
TTITLE6=Don Gibson/Oh Lonesome Me
TTITLE7=Charlie Rich/My Heart Cries For You
TTITLE8=Conway Twitty/Born To Sing The Country Blues
TTITLE9=Freddy Fender/Wasted Days And Wasted Nights
TTITLE10=Kenny Rogers/Reuben James
TTITLE11=Floyd Cramer/Fancy Pants
TTITLE12=Faron Young/It's Four In The Morning
TTITLE13=Claude King/Wolverton Mountain
TTITLE14=Dave Dudley/Phantom 309
TTITLE15=George Jones/Window Up Above
EXTD=
EXTT0=
EXTT1=
EXTT2=
EXTT3=
EXTT4=
EXTT5=
EXTT6=
EXTT7=
EXTT8=
EXTT9=
EXTT10=
EXTT11=
EXTT12=
EXTT13=
EXTT14=
EXTT15=
PLAYORDER=
